<?xml version="1.0" encoding="UTF-8" standalone="no"?>
<!-- Created with Inkscape (http://www.inkscape.org/) -->

<svg
   width="49.014416mm"
   height="38.985878mm"
   viewBox="0 0 49.014416 38.985878"
   version="1.1"
   id="svg5"
   inkscape:version="1.3.2 (091e20ef0f, 2023-11-25, custom)"
   sodipodi:docname="toc.svg"
   xmlns:inkscape="http://www.inkscape.org/namespaces/inkscape"
   xmlns:sodipodi="http://sodipodi.sourceforge.net/DTD/sodipodi-0.dtd"
   xmlns="http://www.w3.org/2000/svg"
   xmlns:svg="http://www.w3.org/2000/svg">
  <sodipodi:namedview
     id="namedview7"
     pagecolor="#ffffff"
     bordercolor="#666666"
     borderopacity="1.0"
     inkscape:pageshadow="2"
     inkscape:pageopacity="0.0"
     inkscape:pagecheckerboard="0"
     inkscape:document-units="mm"
     showgrid="false"
     inkscape:showpageshadow="2"
     inkscape:deskcolor="#d1d1d1"
     inkscape:zoom="0.71535494"
     inkscape:cx="255.81706"
     inkscape:cy="277.48463"
     inkscape:window-width="1920"
     inkscape:window-height="1058"
     inkscape:window-x="0"
     inkscape:window-y="2"
     inkscape:window-maximized="1"
     inkscape:current-layer="layer1" />
  <defs
     id="defs2" />
  <g
     inkscape:label="Ebene 1"
     inkscape:groupmode="layer"
     id="layer1"
     transform="translate(-37.306248,-75.141667)">
    <g
       id="g8"
       transform="translate(-36.485465,38.842993)">
      <path
         d="m 73.791713,42.287819 v -4.742418 c 0,-0.337636 0.173253,-0.629855 0.519673,-0.876603 0.346334,-0.246764 0.756734,-0.370124 1.230833,-0.370124 h 45.513361 c 0.4741,0 0.88439,0.123354 1.23086,0.370124 0.34633,0.246763 0.51969,0.538951 0.51969,0.876603 v 4.742418 c 0,0.337636 -0.17325,0.629854 -0.51969,0.876603 -0.34634,0.246761 -0.75676,0.370123 -1.23086,0.370123 H 75.542219 c -0.474099,0 -0.884348,-0.123353 -1.230833,-0.370123 -0.346333,-0.246764 -0.519673,-0.538956 -0.519673,-0.876603 z"
         style="color:#000000;-inkscape-font-specification:FontAwesome;fill:#000000;stroke-width:1.15437;-inkscape-stroke:none"
         id="path1-5"
         sodipodi:nodetypes="sscsscsscsscs" />
      <path
         d="m 73.791713,52.871155 v -4.742418 c 0,-0.337636 0.173253,-0.629855 0.519673,-0.876603 0.346334,-0.246764 0.756734,-0.370124 1.230833,-0.370124 h 45.513361 c 0.4741,0 0.88439,0.123354 1.23086,0.370124 0.34633,0.246763 0.51969,0.538951 0.51969,0.876603 v 4.742418 c 0,0.337636 -0.17325,0.629854 -0.51969,0.876603 -0.34634,0.246761 -0.75676,0.370123 -1.23086,0.370123 H 75.542219 c -0.474099,0 -0.884348,-0.123353 -1.230833,-0.370123 -0.346333,-0.246764 -0.519673,-0.538956 -0.519673,-0.876603 z"
         style="color:#000000;-inkscape-font-specification:FontAwesome;fill:#000000;stroke-width:1.15437;-inkscape-stroke:none"
         id="path6"
         sodipodi:nodetypes="sscsscsscsscs" />
      <path
         d="m 73.791713,63.454491 v -4.742418 c 0,-0.337636 0.173253,-0.629855 0.519673,-0.876603 0.346334,-0.246764 0.756734,-0.370124 1.230833,-0.370124 h 45.513361 c 0.4741,0 0.88439,0.123354 1.23086,0.370124 0.34633,0.246763 0.51969,0.538951 0.51969,0.876603 v 4.742418 c 0,0.337636 -0.17325,0.629854 -0.51969,0.876603 -0.34634,0.246761 -0.75676,0.370123 -1.23086,0.370123 H 75.542219 c -0.474099,0 -0.884348,-0.123353 -1.230833,-0.370123 -0.346333,-0.246764 -0.519673,-0.538956 -0.519673,-0.876603 z"
         style="color:#000000;-inkscape-font-specification:FontAwesome;fill:#000000;stroke-width:1.15437;-inkscape-stroke:none"
         id="path7"
         sodipodi:nodetypes="sscsscsscsscs" />
      <path
         d="m 73.791713,74.037827 v -4.742418 c 0,-0.337636 0.173253,-0.629855 0.519673,-0.876603 0.346334,-0.246764 0.756734,-0.370124 1.230833,-0.370124 h 45.513361 c 0.4741,0 0.88439,0.123354 1.23086,0.370124 0.34633,0.246763 0.51969,0.538951 0.51969,0.876603 v 4.742418 c 0,0.337636 -0.17325,0.629854 -0.51969,0.876603 -0.34634,0.246761 -0.75676,0.370123 -1.23086,0.370123 H 75.542219 c -0.474099,0 -0.884348,-0.123353 -1.230833,-0.370123 -0.346333,-0.246764 -0.519673,-0.538956 -0.519673,-0.876603 z"
         style="color:#000000;-inkscape-font-specification:FontAwesome;fill:#000000;stroke-width:1.15437;-inkscape-stroke:none"
         id="path8"
         sodipodi:nodetypes="sscsscsscsscs" />
    </g>
  </g>
</svg>
