<?xml version="1.0" encoding="UTF-8" standalone="no"?>
<!-- Generated by graphviz version 12.1.0 (0)
 -->

<!-- Title: G Pages: 1 -->

<svg
   width="1599pt"
   height="476pt"
   viewBox="0.00 0.00 1598.95 476.00"
   version="1.1"
   id="svg84"
   sodipodi:docname="clamps-dependencies.svg"
   inkscape:version="1.3.2 (091e20ef0f, 2023-11-25, custom)"
   xmlns:inkscape="http://www.inkscape.org/namespaces/inkscape"
   xmlns:sodipodi="http://sodipodi.sourceforge.net/DTD/sodipodi-0.dtd"
   xmlns="http://www.w3.org/2000/svg"
   xmlns:svg="http://www.w3.org/2000/svg">
  <defs
     id="defs84" />
  <sodipodi:namedview
     id="namedview84"
     pagecolor="#ffffff"
     bordercolor="#666666"
     borderopacity="1.0"
     inkscape:showpageshadow="2"
     inkscape:pageopacity="0.0"
     inkscape:pagecheckerboard="0"
     inkscape:deskcolor="#d1d1d1"
     inkscape:document-units="pt"
     showgrid="false"
     inkscape:zoom="0.84662289"
     inkscape:cx="1066"
     inkscape:cy="317.14238"
     inkscape:window-width="1920"
     inkscape:window-height="1058"
     inkscape:window-x="0"
     inkscape:window-y="2"
     inkscape:window-maximized="1"
     inkscape:current-layer="svg84" />
  <polygon
     fill="#ffffff"
     stroke="none"
     points="1594.95,-472 1594.95,4 -4,4 -4,-472 "
     id="polygon1"
     transform="translate(4,472)" />
  <g
     id="node1"
     class="node"
     transform="translate(4,472)">
    <title
       id="title2">svg-import-export</title>
    <ellipse
       fill="none"
       stroke="#000000"
       cx="347.20999"
       cy="-378"
       rx="101.19"
       ry="18"
       id="ellipse2" />
    <text
       text-anchor="middle"
       x="347.20999"
       y="-373.32001"
       font-family="serif, serif"
       font-size="14px"
       id="text2">svg-import-export</text>
  </g>
  <g
     id="node2"
     class="node"
     transform="translate(4,472)">
    <title
       id="title3">cl-svg</title>
    <ellipse
       fill="none"
       stroke="#000000"
       cx="394.20999"
       cy="-306"
       rx="40.16"
       ry="18"
       id="ellipse3" />
    <text
       text-anchor="middle"
       x="394.20999"
       y="-301.32001"
       font-family="serif, serif"
       font-size="14px"
       id="text3">cl-svg</text>
  </g>
  <g
     id="edge1"
     class="edge"
     transform="translate(4,472)">
    <title
       id="title4">svg-import-export-&gt;cl-svg</title>
    <path
       fill="none"
       stroke="#000000"
       d="m 358.83,-359.7 c 5.37,8 11.86,17.68 17.82,26.55"
       id="path4" />
    <polygon
       fill="#000000"
       stroke="#000000"
       points="373.72,-331.23 379.54,-335.13 382.2,-324.88 "
       id="polygon4" />
  </g>
  <g
     id="node4"
     class="node"
     transform="translate(4,472)">
    <title
       id="title5">cm-svg</title>
    <ellipse
       fill="none"
       stroke="#000000"
       cx="325.20999"
       cy="-234"
       rx="46.470001"
       ry="18"
       id="ellipse5" />
    <text
       text-anchor="middle"
       x="325.20999"
       y="-229.32001"
       font-family="serif, serif"
       font-size="14px"
       id="text5">cm-svg</text>
  </g>
  <g
     id="edge4"
     class="edge"
     transform="translate(4,472)">
    <title
       id="title6">svg-import-export-&gt;cm-svg</title>
    <path
       fill="none"
       stroke="#000000"
       d="m 344.51,-359.59 c -3.71,23.98 -10.45,67.45 -14.9,96.17"
       id="path6" />
    <polygon
       fill="#000000"
       stroke="#000000"
       points="326.16,-264.02 333.08,-262.95 328.09,-253.61 "
       id="polygon6" />
  </g>
  <g
     id="edge3"
     class="edge"
     transform="translate(4,472)">
    <title
       id="title7">cl-svg-&gt;cm-svg</title>
    <path
       fill="none"
       stroke="#000000"
       d="m 378.55,-289.12 c -8.7,8.83 -19.7,19.99 -29.45,29.88"
       id="path7" />
    <polygon
       fill="#000000"
       stroke="#000000"
       points="346.87,-261.96 351.86,-257.05 342.34,-252.38 "
       id="polygon7" />
  </g>
  <ellipse
     fill="none"
     stroke="#000000"
     cx="205.21001"
     cy="94"
     rx="27"
     ry="18"
     id="ellipse8"
     style="fill:#ffd5d5" />
  <text
     text-anchor="middle"
     x="205.21001"
     y="98.679993"
     font-family="serif, serif"
     font-size="14px"
     id="text8">cm</text>
  <g
     id="edge2"
     class="edge"
     transform="translate(4,472)">
    <title
       id="title9">cm-&gt;cm-svg</title>
    <path
       fill="none"
       stroke="#000000"
       d="m 218.9,-364.2 c 13.28,10.08 31.49,24.95 45.31,40.2 17.43,19.24 33.86,43.73 45.27,62.14"
       id="path9" />
    <polygon
       fill="#000000"
       stroke="#000000"
       points="306.46,-260.08 312.44,-263.72 314.65,-253.35 "
       id="polygon9" />
  </g>
  <g
     id="node6"
     class="node"
     transform="translate(4,472)">
    <title
       id="title10">cm-incudine</title>
    <ellipse
       fill="none"
       stroke="#000000"
       cx="821.21002"
       cy="-306"
       rx="71.730003"
       ry="18"
       id="ellipse10" />
    <text
       text-anchor="middle"
       x="821.21002"
       y="-301.32001"
       font-family="serif, serif"
       font-size="14px"
       id="text10">cm-incudine</text>
  </g>
  <g
     id="edge6"
     class="edge"
     transform="translate(4,472)">
    <title
       id="title11">cm-&gt;cm-incudine</title>
    <path
       fill="none"
       stroke="#000000"
       d="m 221.67,-365.83 c 4.96,2.28 10.34,4.41 15.54,5.83 92.5,25.19 364.96,42 502.54,49.13"
       id="path11" />
    <polygon
       fill="#000000"
       stroke="#000000"
       points="739.35,-307.39 739.71,-314.38 749.52,-310.37 "
       id="polygon11" />
  </g>
  <g
     id="node20"
     class="node"
     transform="translate(4,472)">
    <title
       id="title12">cm-sfz</title>
    <ellipse
       fill="none"
       stroke="#000000"
       cx="214.21001"
       cy="-90"
       rx="43.32"
       ry="18"
       id="ellipse12" />
    <text
       text-anchor="middle"
       x="214.21001"
       y="-85.330002"
       font-family="serif, serif"
       font-size="14px"
       id="text12">cm-sfz</text>
  </g>
  <g
     id="edge26"
     class="edge"
     transform="translate(4,472)">
    <title
       id="title13">cm-&gt;cm-sfz</title>
    <path
       fill="none"
       stroke="#000000"
       d="m 202,-359.54 c 2.17,47.78 8.23,181.03 10.91,239.93"
       id="path13" />
    <polygon
       fill="#000000"
       stroke="#000000"
       points="209.41,-119.57 216.4,-119.89 213.36,-109.74 "
       id="polygon13" />
  </g>
  <ellipse
     fill="none"
     stroke="#000000"
     cx="128.20999"
     cy="166"
     rx="59.630001"
     ry="18"
     id="ellipse14"
     style="fill:#ffd5d5" />
  <text
     text-anchor="middle"
     x="128.20999"
     y="170.67999"
     font-family="serif, serif"
     font-size="14px"
     id="text14">cm-fomus</text>
  <g
     id="edge39"
     class="edge"
     transform="translate(4,472)">
    <title
       id="title15">cm-&gt;cm-fomus</title>
    <path
       fill="none"
       stroke="#000000"
       d="m 185.63,-362.83 c -9.95,9.04 -23.1,20.99 -34.68,31.52"
       id="path15" />
    <polygon
       fill="#000000"
       stroke="#000000"
       points="148.64,-333.94 153.35,-328.76 143.59,-324.62 "
       id="polygon15" />
  </g>
  <g
     id="node22"
     class="node"
     transform="translate(4,472)">
    <title
       id="title16">cm-poolevt</title>
    <ellipse
       fill="none"
       stroke="#000000"
       cx="382.20999"
       cy="-162"
       rx="65.940002"
       ry="18"
       id="ellipse16" />
    <text
       text-anchor="middle"
       x="382.20999"
       y="-157.32001"
       font-family="serif, serif"
       font-size="14px"
       id="text16">cm-poolevt</text>
  </g>
  <g
     id="edge32"
     class="edge"
     transform="translate(4,472)">
    <title
       id="title17">cm-&gt;cm-poolevt</title>
    <path
       fill="none"
       stroke="#000000"
       d="m 209.32,-360.4 c 5.01,10.4 11.49,24.1 16.89,36.4 20.84,47.46 8.37,70.35 44,108 15.35,16.22 36.68,28.01 56.6,36.28"
       id="path17" />
    <polygon
       fill="#000000"
       stroke="#000000"
       points="325.38,-176.52 327.93,-183.04 335.97,-176.14 "
       id="polygon17" />
  </g>
  <g
     id="node24"
     class="node"
     transform="translate(4,472)">
    <title
       id="title18">cm-utils</title>
    <ellipse
       fill="none"
       stroke="#000000"
       cx="51.209999"
       cy="-234"
       rx="51.209999"
       ry="18"
       id="ellipse18" />
    <text
       text-anchor="middle"
       x="51.209999"
       y="-229.32001"
       font-family="serif, serif"
       font-size="14px"
       id="text18">cm-utils</text>
  </g>
  <g
     id="edge44"
     class="edge"
     transform="translate(4,472)">
    <title
       id="title19">cm-&gt;cm-utils</title>
    <path
       fill="none"
       stroke="#000000"
       d="m 180.08,-366.49 c -4.84,2.26 -9.99,4.55 -14.87,6.49 -47.8,19.02 -78.88,-4.96 -110,36 -12.88,16.95 -13.07,41.4 -10.49,60.39"
       id="path19" />
    <polygon
       fill="#000000"
       stroke="#000000"
       points="41.26,-263.09 48.16,-264.27 46.4,-253.83 "
       id="polygon19" />
  </g>
  <g
     id="edge28"
     class="edge"
     transform="translate(4,472)">
    <title
       id="title20">cm-svg-&gt;cm-sfz</title>
    <path
       fill="none"
       stroke="#000000"
       d="m 308.36,-216.97 c -10.33,10.18 -23.56,23.86 -34.15,36.97 -16.23,20.08 -32.47,44.5 -43.96,62.68"
       id="path20" />
    <polygon
       fill="#000000"
       stroke="#000000"
       points="227.36,-119.3 233.3,-115.59 225.04,-108.96 "
       id="polygon20" />
  </g>
  <g
     id="edge30"
     class="edge"
     transform="translate(4,472)">
    <title
       id="title21">cm-svg-&gt;cm-poolevt</title>
    <path
       fill="none"
       stroke="#000000"
       d="m 338.72,-216.41 c 6.71,8.25 14.98,18.4 22.5,27.63"
       id="path21" />
    <polygon
       fill="#000000"
       stroke="#000000"
       points="358.42,-186.67 363.84,-191.09 367.45,-181.13 "
       id="polygon21" />
  </g>
  <g
     id="node23"
     class="node"
     transform="translate(4,472)">
    <title
       id="title22">cm-poolplayer</title>
    <ellipse
       fill="none"
       stroke="#000000"
       cx="335.20999"
       cy="-18"
       rx="81.720001"
       ry="18"
       id="ellipse22" />
    <text
       text-anchor="middle"
       x="335.20999"
       y="-13.32"
       font-family="serif, serif"
       font-size="14px"
       id="text22">cm-poolplayer</text>
  </g>
  <g
     id="edge37"
     class="edge"
     transform="translate(4,472)">
    <title
       id="title23">cm-svg-&gt;cm-poolplayer</title>
    <path
       fill="none"
       stroke="#000000"
       d="m 317.92,-216.18 c -4.04,10.24 -8.65,23.72 -10.71,36.18 -7.7,46.62 6.47,100.72 17.31,132.84"
       id="path23" />
    <polygon
       fill="#000000"
       stroke="#000000"
       points="321.19,-46.07 327.79,-48.4 327.82,-37.8 "
       id="polygon23" />
  </g>
  <ellipse
     fill="none"
     stroke="#000000"
     cx="927.21002"
     cy="22"
     rx="53.84"
     ry="18"
     id="ellipse24"
     style="fill:#ffd5d5" />
  <text
     text-anchor="middle"
     x="927.21002"
     y="26.679993"
     font-family="serif, serif"
     font-size="14px"
     id="text24">incudine</text>
  <g
     id="edge5"
     class="edge"
     transform="translate(4,472)">
    <title
       id="title25">incudine-&gt;cm-incudine</title>
    <path
       fill="none"
       stroke="#000000"
       d="m 911.74,-432.13 c -12.3,18 -32.51,47.28 -50.53,72.13 -6.39,8.81 -13.52,18.34 -19.96,26.85"
       id="path25" />
    <polygon
       fill="#000000"
       stroke="#000000"
       points="838.53,-335.35 844.1,-331.11 835.26,-325.27 "
       id="polygon25" />
  </g>
  <g
     id="node7"
     class="node"
     transform="translate(4,472)">
    <title
       id="title26">cl-midictl</title>
    <ellipse
       fill="none"
       stroke="#000000"
       cx="966.21002"
       cy="-378"
       rx="57.52"
       ry="18"
       id="ellipse26" />
    <text
       text-anchor="middle"
       x="966.21002"
       y="-373.32001"
       font-family="serif, serif"
       font-size="14px"
       id="text26">cl-midictl</text>
  </g>
  <g
     id="edge41"
     class="edge"
     transform="translate(4,472)">
    <title
       id="title27">incudine-&gt;cl-midictl</title>
    <path
       fill="none"
       stroke="#000000"
       d="m 933.62,-432.05 c 4.91,7.99 10.88,17.72 16.37,26.65"
       id="path27" />
    <polygon
       fill="#000000"
       stroke="#000000"
       points="946.89,-403.77 952.85,-407.43 955.1,-397.08 "
       id="polygon27" />
  </g>
  <g
     id="node8"
     class="node"
     transform="translate(4,472)">
    <title
       id="title28">fudi</title>
    <ellipse
       fill="none"
       stroke="#000000"
       cx="821.21002"
       cy="-378"
       rx="30.690001"
       ry="18"
       id="ellipse28" />
    <text
       text-anchor="middle"
       x="821.21002"
       y="-373.32001"
       font-family="serif, serif"
       font-size="14px"
       id="text28">fudi</text>
  </g>
  <g
     id="edge13"
     class="edge"
     transform="translate(4,472)">
    <title
       id="title29">incudine-&gt;fudi</title>
    <path
       fill="none"
       stroke="#000000"
       d="m 900.32,-433.29 c -14.89,10.21 -34.42,23.62 -50.35,34.55"
       id="path29" />
    <polygon
       fill="#000000"
       stroke="#000000"
       points="848.11,-401.7 852.07,-395.93 841.84,-393.16 "
       id="polygon29" />
  </g>
  <g
     id="node9"
     class="node"
     transform="translate(4,472)">
    <title
       id="title30">cuda-usocket-osc</title>
    <ellipse
       fill="none"
       stroke="#000000"
       cx="676.21002"
       cy="-378"
       rx="95.93"
       ry="18"
       id="ellipse30" />
    <text
       text-anchor="middle"
       x="676.21002"
       y="-373.32001"
       font-family="serif, serif"
       font-size="14px"
       id="text30">cuda-usocket-osc</text>
  </g>
  <g
     id="edge9"
     class="edge"
     transform="translate(4,472)">
    <title
       id="title31">incudine-&gt;cuda-usocket-osc</title>
    <path
       fill="none"
       stroke="#000000"
       d="m 882.97,-437.6 c -39.15,11.1 -99.19,28.11 -144.5,40.96"
       id="path31" />
    <polygon
       fill="#000000"
       stroke="#000000"
       points="737.7,-400.06 739.61,-393.33 729.03,-393.97 "
       id="polygon31" />
  </g>
  <g
     id="node10"
     class="node"
     transform="translate(4,472)">
    <title
       id="title32">ats-cuda</title>
    <ellipse
       fill="none"
       stroke="#000000"
       cx="1095.21"
       cy="-378"
       rx="53.310001"
       ry="18"
       id="ellipse32" />
    <text
       text-anchor="middle"
       x="1095.21"
       y="-373.32001"
       font-family="serif, serif"
       font-size="14px"
       id="text32">ats-cuda</text>
  </g>
  <g
     id="edge10"
     class="edge"
     transform="translate(4,472)">
    <title
       id="title33">incudine-&gt;ats-cuda</title>
    <path
       fill="none"
       stroke="#000000"
       d="m 956.37,-435.5 c 27.13,11.04 65.7,26.74 95.31,38.79"
       id="path33" />
    <polygon
       fill="#000000"
       stroke="#000000"
       points="1050.16,-393.55 1052.8,-400.04 1060.74,-393.03 "
       id="polygon33" />
  </g>
  <g
     id="node12"
     class="node"
     transform="translate(4,472)">
    <title
       id="title34">clog-dsp-widgets</title>
    <ellipse
       fill="none"
       stroke="#000000"
       cx="1433.21"
       cy="-378"
       rx="95.400002"
       ry="18"
       id="ellipse34" />
    <text
       text-anchor="middle"
       x="1433.21"
       y="-373.32001"
       font-family="serif, serif"
       font-size="14px"
       id="text34">clog-dsp-widgets</text>
  </g>
  <g
     id="edge47"
     class="edge"
     transform="translate(4,472)">
    <title
       id="title35">incudine-&gt;clog-dsp-widgets</title>
    <path
       fill="none"
       stroke="#000000"
       d="m 973.16,-442.96 c 76.52,9.37 227.35,28.27 355.05,46.96 7.7,1.13 15.71,2.34 23.72,3.59"
       id="path35" />
    <polygon
       fill="#000000"
       stroke="#000000"
       points="1351.3,-388.97 1352.39,-395.88 1361.72,-390.87 "
       id="polygon35" />
  </g>
  <g
     id="node15"
     class="node"
     transform="translate(4,472)">
    <title
       id="title36">incudine-bufs</title>
    <ellipse
       fill="none"
       stroke="#000000"
       cx="583.21002"
       cy="-234"
       rx="78.57"
       ry="18"
       id="ellipse36" />
    <text
       text-anchor="middle"
       x="583.21002"
       y="-229.32001"
       font-family="serif, serif"
       font-size="14px"
       id="text36">incudine-bufs</text>
  </g>
  <g
     id="edge16"
     class="edge"
     transform="translate(4,472)">
    <title
       id="title37">incudine-&gt;incudine-bufs</title>
    <path
       fill="none"
       stroke="#000000"
       d="m 869.21,-449.08 c -88.95,1.15 -260.21,9.17 -298,53.08 -31.84,37 -14.81,98.17 -0.66,133.5"
       id="path37" />
    <polygon
       fill="#000000"
       stroke="#000000"
       points="567.28,-261.25 573.73,-263.97 574.39,-253.4 "
       id="polygon37" />
  </g>
  <g
     id="node17"
     class="node"
     transform="translate(4,472)">
    <title
       id="title38">incudine-plot</title>
    <ellipse
       fill="none"
       stroke="#000000"
       cx="1243.21"
       cy="-378"
       rx="76.459999"
       ry="18"
       id="ellipse38" />
    <text
       text-anchor="middle"
       x="1243.21"
       y="-373.32001"
       font-family="serif, serif"
       font-size="14px"
       id="text38">incudine-plot</text>
  </g>
  <g
     id="edge18"
     class="edge"
     transform="translate(4,472)">
    <title
       id="title39">incudine-&gt;incudine-plot</title>
    <path
       fill="none"
       stroke="#000000"
       d="m 967.37,-439.34 c 54.42,11.91 147.39,32.24 210.19,45.98"
       id="path39" />
    <polygon
       fill="#000000"
       stroke="#000000"
       points="1176.54,-390 1178.03,-396.84 1187.06,-391.28 "
       id="polygon39" />
  </g>
  <g
     id="node14"
     class="node"
     transform="translate(4,472)">
    <title
       id="title40">of-incudine-dsps</title>
    <ellipse
       fill="none"
       stroke="#000000"
       cx="772.21002"
       cy="-234"
       rx="92.239998"
       ry="18"
       id="ellipse40" />
    <text
       text-anchor="middle"
       x="772.21002"
       y="-229.32001"
       font-family="serif, serif"
       font-size="14px"
       id="text40">of-incudine-dsps</text>
  </g>
  <g
     id="edge15"
     class="edge"
     transform="translate(4,472)">
    <title
       id="title41">cm-incudine-&gt;of-incudine-dsps</title>
    <path
       fill="none"
       stroke="#000000"
       d="m 809.35,-288.05 c -5.58,7.96 -12.35,17.64 -18.59,26.54"
       id="path41" />
    <polygon
       fill="#000000"
       stroke="#000000"
       points="788.04,-263.71 793.77,-259.7 785.17,-253.52 "
       id="polygon41" />
  </g>
  <g
     id="edge7"
     class="edge"
     transform="translate(4,472)">
    <title
       id="title42">cl-midictl-&gt;cm-incudine</title>
    <path
       fill="none"
       stroke="#000000"
       d="m 935.81,-362.33 c -20.96,10.12 -49.09,23.71 -72.24,34.88"
       id="path42" />
    <polygon
       fill="#000000"
       stroke="#000000"
       points="862.17,-330.66 865.21,-324.36 854.69,-323.16 "
       id="polygon42" />
  </g>
  <g
     id="node29"
     class="node"
     transform="translate(4,472)">
    <title
       id="title43">clog-midi-controller</title>
    <ellipse
       fill="none"
       stroke="#000000"
       cx="1081.21"
       cy="-306"
       rx="109.08"
       ry="18"
       id="ellipse43" />
    <text
       text-anchor="middle"
       x="1081.21"
       y="-301.32001"
       font-family="serif, serif"
       font-size="14px"
       id="text43">clog-midi-controller</text>
  </g>
  <g
     id="edge54"
     class="edge"
     transform="translate(4,472)">
    <title
       id="title44">cl-midictl-&gt;clog-midi-controller</title>
    <path
       fill="none"
       stroke="#000000"
       d="m 991.73,-361.46 c 15.38,9.36 35.23,21.44 52.33,31.85"
       id="path44" />
    <polygon
       fill="#000000"
       stroke="#000000"
       points="1042.09,-326.71 1045.73,-332.69 1052.46,-324.5 "
       id="polygon44" />
  </g>
  <g
     id="edge8"
     class="edge"
     transform="translate(4,472)">
    <title
       id="title45">fudi-&gt;cm-incudine</title>
    <path
       fill="none"
       stroke="#000000"
       d="m 821.21,-359.7 c 0,7.29 0,15.97 0,24.16"
       id="path45" />
    <polygon
       fill="#000000"
       stroke="#000000"
       points="817.71,-335.62 824.71,-335.62 821.21,-325.62 "
       id="polygon45" />
  </g>
  <g
     id="node11"
     class="node"
     transform="translate(4,472)">
    <title
       id="title46">ats-cuda-display</title>
    <ellipse
       fill="none"
       stroke="#000000"
       cx="1337.21"
       cy="-306"
       rx="92.239998"
       ry="18"
       id="ellipse46" />
    <text
       text-anchor="middle"
       x="1337.21"
       y="-301.32001"
       font-family="serif, serif"
       font-size="14px"
       id="text46">ats-cuda-display</text>
  </g>
  <g
     id="edge11"
     class="edge"
     transform="translate(4,472)">
    <title
       id="title47">ats-cuda-&gt;ats-cuda-display</title>
    <path
       fill="none"
       stroke="#000000"
       d="m 1134.9,-365.52 c 38.32,11.09 96.89,28.03 141.17,40.83"
       id="path47" />
    <polygon
       fill="#000000"
       stroke="#000000"
       points="1274.96,-321.36 1276.91,-328.09 1285.54,-321.94 "
       id="polygon47" />
  </g>
  <g
     id="edge12"
     class="edge"
     transform="translate(4,472)">
    <title
       id="title48">clog-dsp-widgets-&gt;ats-cuda-display</title>
    <path
       fill="none"
       stroke="#000000"
       d="m 1409.97,-360.05 c -12.15,8.85 -27.2,19.83 -40.47,29.5"
       id="path48" />
    <polygon
       fill="#000000"
       stroke="#000000"
       points="1367.47,-333.4 1371.6,-327.74 1361.46,-324.68 "
       id="polygon48" />
  </g>
  <g
     id="node28"
     class="node"
     transform="translate(4,472)">
    <title
       id="title49">clog-cuda</title>
    <ellipse
       fill="none"
       stroke="#000000"
       cx="1515.21"
       cy="-162"
       rx="58.57"
       ry="18"
       id="ellipse49" />
    <text
       text-anchor="middle"
       x="1515.21"
       y="-157.32001"
       font-family="serif, serif"
       font-size="14px"
       id="text49">clog-cuda</text>
  </g>
  <g
     id="edge51"
     class="edge"
     transform="translate(4,472)">
    <title
       id="title50">clog-dsp-widgets-&gt;clog-cuda</title>
    <path
       fill="none"
       stroke="#000000"
       d="m 1439.78,-359.85 c 14.12,36.86 47.49,123.93 64.72,168.89"
       id="path50" />
    <polygon
       fill="#000000"
       stroke="#000000"
       points="1501.22,-189.73 1507.75,-192.24 1508.06,-181.65 "
       id="polygon50" />
  </g>
  <g
     id="edge53"
     class="edge"
     transform="translate(4,472)">
    <title
       id="title51">clog-dsp-widgets-&gt;clog-midi-controller</title>
    <path
       fill="none"
       stroke="#000000"
       d="m 1369.46,-364.32 c -58.78,11.69 -146.22,29.08 -209.38,41.64"
       id="path51" />
    <polygon
       fill="#000000"
       stroke="#000000"
       points="1159.59,-326.16 1160.95,-319.29 1150.46,-320.77 "
       id="polygon51" />
  </g>
  <g
     id="node13"
     class="node"
     transform="translate(4,472)">
    <title
       id="title52">orm-utils</title>
    <ellipse
       fill="none"
       stroke="#000000"
       cx="476.20999"
       cy="-450"
       rx="56.470001"
       ry="18"
       id="ellipse52" />
    <text
       text-anchor="middle"
       x="476.20999"
       y="-445.32001"
       font-family="serif, serif"
       font-size="14px"
       id="text52">orm-utils</text>
  </g>
  <g
     id="edge25"
     class="edge"
     transform="translate(4,472)">
    <title
       id="title53">orm-utils-&gt;svg-import-export</title>
    <path
       fill="none"
       stroke="#000000"
       d="m 448.53,-433.98 c -17.77,9.64 -41.17,22.34 -60.99,33.1"
       id="path53" />
    <polygon
       fill="#000000"
       stroke="#000000"
       points="385.99,-404.03 389.33,-397.87 378.87,-396.18 "
       id="polygon53" />
  </g>
  <g
     id="edge40"
     class="edge"
     transform="translate(4,472)">
    <title
       id="title54">orm-utils-&gt;cl-midictl</title>
    <path
       fill="none"
       stroke="#000000"
       d="m 527.95,-442.27 c 73.96,9.7 214.15,28.43 333.26,46.27 14.19,2.13 29.45,4.53 43.81,6.84"
       id="path54" />
    <polygon
       fill="#000000"
       stroke="#000000"
       points="904.38,-385.72 905.5,-392.63 914.81,-387.57 "
       id="polygon54" />
  </g>
  <g
     id="edge14"
     class="edge"
     transform="translate(4,472)">
    <title
       id="title55">orm-utils-&gt;of-incudine-dsps</title>
    <path
       fill="none"
       stroke="#000000"
       d="m 491.81,-432.54 c 18.15,18.69 49.46,49.56 79.4,72.54 52.74,40.48 119.1,79.72 160.8,103.12"
       id="path55" />
    <polygon
       fill="#000000"
       stroke="#000000"
       points="730.29,-253.83 733.7,-259.94 740.73,-252.02 "
       id="polygon55" />
  </g>
  <g
     id="node19"
     class="node"
     transform="translate(4,472)">
    <title
       id="title56">cl-poolplayer</title>
    <ellipse
       fill="none"
       stroke="#000000"
       cx="541.21002"
       cy="-90"
       rx="75.410004"
       ry="18"
       id="ellipse56" />
    <text
       text-anchor="middle"
       x="541.21002"
       y="-85.330002"
       font-family="serif, serif"
       font-size="14px"
       id="text56">cl-poolplayer</text>
  </g>
  <g
     id="edge24"
     class="edge"
     transform="translate(4,472)">
    <title
       id="title57">orm-utils-&gt;cl-poolplayer</title>
    <path
       fill="none"
       stroke="#000000"
       d="m 476.21,-431.51 c 0,26.8 0,79.64 0,124.51 0,0 0,0 0,74 0,40.45 0.95,52.8 19,89 5.08,10.2 12.59,20.02 20.07,28.37"
       id="path57" />
    <polygon
       fill="#000000"
       stroke="#000000"
       points="512.52,-113.46 517.61,-118.27 521.93,-108.59 "
       id="polygon57" />
  </g>
  <g
     id="edge43"
     class="edge"
     transform="translate(4,472)">
    <title
       id="title58">orm-utils-&gt;cm-utils</title>
    <path
       fill="none"
       stroke="#000000"
       d="m 419.38,-448.96 c -100.26,1.23 -302.99,9.22 -356.17,52.96 -38.09,31.33 -29.49,95.65 -20.39,132.81"
       id="path58" />
    <polygon
       fill="#000000"
       stroke="#000000"
       points="39.41,-262.39 46.18,-264.18 45.35,-253.62 "
       id="polygon58" />
  </g>
  <g
     id="node18"
     class="node"
     transform="translate(4,472)">
    <title
       id="title59">cl-sfz</title>
    <ellipse
       fill="none"
       stroke="#000000"
       cx="541.21002"
       cy="-162"
       rx="37"
       ry="18"
       id="ellipse59" />
    <text
       text-anchor="middle"
       x="541.21002"
       y="-157.32001"
       font-family="serif, serif"
       font-size="14px"
       id="text59">cl-sfz</text>
  </g>
  <g
     id="edge20"
     class="edge"
     transform="translate(4,472)">
    <title
       id="title60">of-incudine-dsps-&gt;cl-sfz</title>
    <path
       fill="none"
       stroke="#000000"
       d="m 723.78,-218.33 c -41.75,12.66 -101.4,30.73 -141.02,42.74"
       id="path60" />
    <polygon
       fill="#000000"
       stroke="#000000"
       points="581.91,-178.99 583.94,-172.29 573.35,-172.74 "
       id="polygon60" />
  </g>
  <g
     id="edge22"
     class="edge"
     transform="translate(4,472)">
    <title
       id="title61">of-incudine-dsps-&gt;cl-poolplayer</title>
    <path
       fill="none"
       stroke="#000000"
       d="m 745.26,-216.43 c -41.58,25.56 -121.42,74.64 -167.95,103.24"
       id="path61" />
    <polygon
       fill="#000000"
       stroke="#000000"
       points="575.61,-116.25 579.27,-110.29 568.92,-108.04 "
       id="polygon61" />
  </g>
  <g
     id="edge33"
     class="edge"
     transform="translate(4,472)">
    <title
       id="title62">of-incudine-dsps-&gt;cm-poolevt</title>
    <path
       fill="none"
       stroke="#000000"
       d="m 706.05,-221.13 c -72.2,12.96 -187.05,33.58 -258.81,46.46"
       id="path62" />
    <polygon
       fill="#000000"
       stroke="#000000"
       points="446.82,-178.15 448.06,-171.26 437.6,-172.94 "
       id="polygon62" />
  </g>
  <g
     id="edge50"
     class="edge"
     transform="translate(4,472)">
    <title
       id="title63">of-incudine-dsps-&gt;clog-cuda</title>
    <path
       fill="none"
       stroke="#000000"
       d="m 853.85,-225.31 c 148.13,13.96 458.45,43.19 594.75,56.03"
       id="path63" />
    <polygon
       fill="#000000"
       stroke="#000000"
       points="1447.88,-165.83 1448.54,-172.8 1458.16,-168.37 "
       id="polygon63" />
  </g>
  <g
     id="edge19"
     class="edge"
     transform="translate(4,472)">
    <title
       id="title64">incudine-bufs-&gt;cl-sfz</title>
    <path
       fill="none"
       stroke="#000000"
       d="m 572.83,-215.7 c -4.75,7.92 -10.49,17.47 -15.76,26.26"
       id="path64" />
    <polygon
       fill="#000000"
       stroke="#000000"
       points="554.1,-191.3 560.11,-187.69 551.96,-180.92 "
       id="polygon64" />
  </g>
  <g
     id="edge21"
     class="edge"
     transform="translate(4,472)">
    <title
       id="title65">incudine-bufs-&gt;cl-poolplayer</title>
    <path
       fill="none"
       stroke="#000000"
       d="m 587.9,-215.65 c 4.09,18.41 8.13,48.03 -0.69,71.65 -3.88,10.39 -10.82,20.1 -18.16,28.29"
       id="path65" />
    <polygon
       fill="#000000"
       stroke="#000000"
       points="566.56,-118.16 571.59,-113.3 562.12,-108.54 "
       id="polygon65" />
  </g>
  <g
     id="edge31"
     class="edge"
     transform="translate(4,472)">
    <title
       id="title66">incudine-bufs-&gt;cm-poolevt</title>
    <path
       fill="none"
       stroke="#000000"
       d="m 541.56,-218.5 c -31.75,11.06 -75.6,26.33 -109.27,38.06"
       id="path66" />
    <polygon
       fill="#000000"
       stroke="#000000"
       points="431.47,-183.86 433.77,-177.25 423.18,-177.27 "
       id="polygon66" />
  </g>
  <g
     id="node16"
     class="node"
     transform="translate(4,472)">
    <title
       id="title67">cl-plot</title>
    <ellipse
       fill="none"
       stroke="#000000"
       cx="1243.21"
       cy="-450"
       rx="42.259998"
       ry="18"
       id="ellipse67" />
    <text
       text-anchor="middle"
       x="1243.21"
       y="-445.32001"
       font-family="serif, serif"
       font-size="14px"
       id="text67">cl-plot</text>
  </g>
  <g
     id="edge17"
     class="edge"
     transform="translate(4,472)">
    <title
       id="title68">cl-plot-&gt;incudine-plot</title>
    <path
       fill="none"
       stroke="#000000"
       d="m 1243.21,-431.7 c 0,7.29 0,15.97 0,24.16"
       id="path68" />
    <polygon
       fill="#000000"
       stroke="#000000"
       points="1239.71,-407.62 1246.71,-407.62 1243.21,-397.62 "
       id="polygon68" />
  </g>
  <g
     id="edge23"
     class="edge"
     transform="translate(4,472)">
    <title
       id="title69">cl-sfz-&gt;cl-poolplayer</title>
    <path
       fill="none"
       stroke="#000000"
       d="m 541.21,-143.7 c 0,7.29 0,15.97 0,24.16"
       id="path69" />
    <polygon
       fill="#000000"
       stroke="#000000"
       points="537.71,-119.62 544.71,-119.62 541.21,-109.62 "
       id="polygon69" />
  </g>
  <g
     id="edge27"
     class="edge"
     transform="translate(4,472)">
    <title
       id="title70">cl-sfz-&gt;cm-sfz</title>
    <path
       fill="none"
       stroke="#000000"
       d="m 507.75,-153.84 c -57.93,12.4 -177.17,37.93 -244.48,52.34"
       id="path70" />
    <polygon
       fill="#000000"
       stroke="#000000"
       points="262.65,-104.95 264.12,-98.1 253.61,-99.43 "
       id="polygon70" />
  </g>
  <g
     id="edge34"
     class="edge"
     transform="translate(4,472)">
    <title
       id="title71">cl-poolplayer-&gt;cm-poolplayer</title>
    <path
       fill="none"
       stroke="#000000"
       d="M 499.02,-74.67 C 467.27,-63.87 423.49,-49 389.18,-37.34"
       id="path71" />
    <polygon
       fill="#000000"
       stroke="#000000"
       points="388.17,-40.69 390.43,-34.07 379.83,-34.16 "
       id="polygon71" />
  </g>
  <g
     id="edge29"
     class="edge"
     transform="translate(4,472)">
    <title
       id="title72">cm-fomus-&gt;cm-sfz</title>
    <path
       fill="none"
       stroke="#000000"
       d="m 131.42,-287.85 c 15.54,36.94 52.28,124.3 71.15,169.18"
       id="path72" />
    <polygon
       fill="#000000"
       stroke="#000000"
       points="199.27,-117.49 205.72,-120.2 206.37,-109.63 "
       id="polygon72" />
  </g>
  <g
     id="edge45"
     class="edge"
     transform="translate(4,472)">
    <title
       id="title73">cm-fomus-&gt;cm-utils</title>
    <path
       fill="none"
       stroke="#000000"
       d="m 106.91,-288.41 c -9.16,8.78 -20.57,19.72 -30.68,29.41"
       id="path73" />
    <polygon
       fill="#000000"
       stroke="#000000"
       points="74.02,-261.72 78.86,-256.67 69.22,-252.28 "
       id="polygon73" />
  </g>
  <g
     id="edge36"
     class="edge"
     transform="translate(4,472)">
    <title
       id="title74">cm-poolevt-&gt;cm-poolplayer</title>
    <path
       fill="none"
       stroke="#000000"
       d="m 376.44,-143.59 c -7.97,24.09 -22.45,67.84 -31.95,96.56"
       id="path74" />
    <polygon
       fill="#000000"
       stroke="#000000"
       points="341.17,-48.14 347.81,-45.94 341.35,-37.55 "
       id="polygon74" />
  </g>
  <g
     id="edge35"
     class="edge"
     transform="translate(4,472)">
    <title
       id="title75">cm-utils-&gt;cm-poolplayer</title>
    <path
       fill="none"
       stroke="#000000"
       d="m 58.35,-215.84 c 14.56,32.9 50.86,105.02 103.86,143.84 27.77,20.34 63.46,32.98 95.21,40.78"
       id="path75" />
    <polygon
       fill="#000000"
       stroke="#000000"
       points="256.46,-27.85 258.04,-34.67 266.99,-29 "
       id="polygon75" />
  </g>
  <ellipse
     fill="none"
     stroke="#000000"
     cx="118.21"
     cy="94"
     rx="41.740002"
     ry="18"
     id="ellipse76"
     style="fill:#ffd5d5" />
  <text
     text-anchor="middle"
     x="118.21"
     y="98.679993"
     font-family="serif, serif"
     font-size="14px"
     id="text76">fomus</text>
  <g
     id="edge38"
     class="edge"
     transform="translate(4,472)">
    <title
       id="title77">fomus-&gt;cm-fomus</title>
    <path
       fill="none"
       stroke="#000000"
       d="m 116.68,-359.7 c 1.05,7.38 2.31,16.18 3.49,24.45"
       id="path77" />
    <polygon
       fill="#000000"
       stroke="#000000"
       points="116.67,-335.01 123.6,-336 121.55,-325.6 "
       id="polygon77" />
  </g>
  <g
     id="node26"
     class="node"
     transform="translate(4,472)">
    <title
       id="title78">cl-refs</title>
    <ellipse
       fill="none"
       stroke="#000000"
       cx="1433.21"
       cy="-450"
       rx="42.259998"
       ry="18"
       id="ellipse78" />
    <text
       text-anchor="middle"
       x="1433.21"
       y="-445.32001"
       font-family="serif, serif"
       font-size="14px"
       id="text78">cl-refs</text>
  </g>
  <g
     id="edge42"
     class="edge"
     transform="translate(4,472)">
    <title
       id="title79">cl-refs-&gt;cl-midictl</title>
    <path
       fill="none"
       stroke="#000000"
       d="m 1393.01,-443.95 c -94.4,11.91 -324.93,41.24 -359.8,47.95 -4.38,0.84 -8.91,1.8 -13.44,2.82"
       id="path79" />
    <polygon
       fill="#000000"
       stroke="#000000"
       points="1018.98,-396.59 1020.58,-389.77 1010.05,-390.89 "
       id="polygon79" />
  </g>
  <g
     id="edge46"
     class="edge"
     transform="translate(4,472)">
    <title
       id="title80">cl-refs-&gt;clog-dsp-widgets</title>
    <path
       fill="none"
       stroke="#000000"
       d="m 1433.21,-431.7 c 0,7.29 0,15.97 0,24.16"
       id="path80" />
    <polygon
       fill="#000000"
       stroke="#000000"
       points="1429.71,-407.62 1436.71,-407.62 1433.21,-397.62 "
       id="polygon80" />
  </g>
  <g
     id="edge52"
     class="edge"
     transform="translate(4,472)">
    <title
       id="title81">cl-refs-&gt;clog-cuda</title>
    <path
       fill="none"
       stroke="#000000"
       d="m 1470.07,-440.72 c 23.66,7.43 52.58,20.96 67.14,44.72 39.71,64.81 9.63,159.32 -9.44,205.52"
       id="path81" />
    <polygon
       fill="#000000"
       stroke="#000000"
       points="1524.63,-192.05 1531.07,-189.29 1523.92,-181.47 "
       id="polygon81" />
  </g>
  <ellipse
     fill="none"
     stroke="#000000"
     cx="1563.21"
     cy="22"
     rx="31.74"
     ry="18"
     id="ellipse82"
     style="fill:#ffd5d5" />
  <text
     text-anchor="middle"
     x="1563.21"
     y="26.679993"
     font-family="serif, serif"
     font-size="14px"
     id="text82">clog</text>
  <g
     id="edge48"
     class="edge"
     transform="translate(4,472)">
    <title
       id="title83">clog-&gt;clog-dsp-widgets</title>
    <path
       fill="none"
       stroke="#000000"
       d="m 1536.97,-436.65 c -17.73,9.85 -43,23.89 -64.17,35.65"
       id="path83" />
    <polygon
       fill="#000000"
       stroke="#000000"
       points="1471.16,-404.09 1474.56,-397.97 1464.11,-396.17 "
       id="polygon83" />
  </g>
  <g
     id="edge49"
     class="edge"
     transform="translate(4,472)">
    <title
       id="title84">clog-&gt;clog-cuda</title>
    <path
       fill="none"
       stroke="#000000"
       d="m 1564.83,-432.03 c 12.16,39.7 37.3,140.93 5.38,216.03 -4.84,11.38 -13.44,21.49 -22.43,29.76"
       id="path84" />
    <polygon
       fill="#000000"
       stroke="#000000"
       points="1545.65,-189.03 1550.19,-183.69 1540.3,-179.88 "
       id="polygon84" />
  </g>
</svg>
