<?xml version="1.0" encoding="UTF-8" standalone="no"?>
<!DOCTYPE svg PUBLIC "-//W3C//DTD SVG 1.1//EN"
 "http://www.w3.org/Graphics/SVG/1.1/DTD/svg11.dtd">
<!-- Generated by graphviz version 12.1.0 (0)
 -->
<!-- Title: G Pages: 1 -->
<svg width="1621pt" height="476pt"
 viewBox="0.00 0.00 1621.11 476.00" xmlns="http://www.w3.org/2000/svg" xmlns:xlink="http://www.w3.org/1999/xlink">
<g id="graph0" class="graph" transform="scale(1 1) rotate(0) translate(4 472)">
<title>G</title>
<polygon fill="white" stroke="none" points="-4,4 -4,-472 1617.11,-472 1617.11,4 -4,4"/>
<!-- svg&#45;import&#45;export -->
<g id="node1" class="node">
<title>svg&#45;import&#45;export</title>
<ellipse fill="none" stroke="black" cx="131.37" cy="-378" rx="101.19" ry="18"/>
<text text-anchor="middle" x="131.37" y="-373.32" font-family="Times,serif" font-size="14.00">svg&#45;import&#45;export</text>
</g>
<!-- cl&#45;svg -->
<g id="node2" class="node">
<title>cl&#45;svg</title>
<ellipse fill="none" stroke="black" cx="133.37" cy="-306" rx="40.16" ry="18"/>
<text text-anchor="middle" x="133.37" y="-301.32" font-family="Times,serif" font-size="14.00">cl&#45;svg</text>
</g>
<!-- svg&#45;import&#45;export&#45;&gt;cl&#45;svg -->
<g id="edge1" class="edge">
<title>svg&#45;import&#45;export&#45;&gt;cl&#45;svg</title>
<path fill="none" stroke="black" d="M131.87,-359.7C132.07,-352.41 132.32,-343.73 132.56,-335.54"/>
<polygon fill="black" stroke="black" points="136.05,-335.71 132.84,-325.62 129.06,-335.51 136.05,-335.71"/>
</g>
<!-- cm&#45;svg -->
<g id="node4" class="node">
<title>cm&#45;svg</title>
<ellipse fill="none" stroke="black" cx="136.37" cy="-234" rx="46.47" ry="18"/>
<text text-anchor="middle" x="136.37" y="-229.32" font-family="Times,serif" font-size="14.00">cm&#45;svg</text>
</g>
<!-- svg&#45;import&#45;export&#45;&gt;cm&#45;svg -->
<g id="edge4" class="edge">
<title>svg&#45;import&#45;export&#45;&gt;cm&#45;svg</title>
<path fill="none" stroke="black" d="M110.6,-360.17C100.62,-350.72 89.7,-338.03 84.37,-324 78.69,-309.04 78.32,-302.81 84.37,-288 89.06,-276.52 97.58,-266.18 106.38,-257.74"/>
<polygon fill="black" stroke="black" points="108.51,-260.53 113.65,-251.27 103.85,-255.3 108.51,-260.53"/>
</g>
<!-- cl&#45;svg&#45;&gt;cm&#45;svg -->
<g id="edge3" class="edge">
<title>cl&#45;svg&#45;&gt;cm&#45;svg</title>
<path fill="none" stroke="black" d="M134.11,-287.7C134.43,-280.41 134.8,-271.73 135.15,-263.54"/>
<polygon fill="black" stroke="black" points="138.64,-263.76 135.57,-253.62 131.65,-263.46 138.64,-263.76"/>
</g>
<!-- cm -->
<g id="node3" class="node">
<title>cm</title>
<ellipse fill="none" stroke="black" cx="428.37" cy="-378" rx="27" ry="18"/>
<text text-anchor="middle" x="428.37" y="-373.32" font-family="Times,serif" font-size="14.00">cm</text>
</g>
<!-- cm&#45;&gt;cm&#45;svg -->
<g id="edge2" class="edge">
<title>cm&#45;&gt;cm&#45;svg</title>
<path fill="none" stroke="black" d="M405.04,-368.24C397.52,-365.5 389.12,-362.53 381.37,-360 327.23,-342.3 309.47,-349.16 258.37,-324 222.66,-306.42 186.39,-278.38 162.79,-258.48"/>
<polygon fill="black" stroke="black" points="165.11,-255.86 155.24,-252.01 160.56,-261.17 165.11,-255.86"/>
</g>
<!-- cm&#45;incudine -->
<g id="node6" class="node">
<title>cm&#45;incudine</title>
<ellipse fill="none" stroke="black" cx="667.37" cy="-306" rx="71.73" ry="18"/>
<text text-anchor="middle" x="667.37" y="-301.32" font-family="Times,serif" font-size="14.00">cm&#45;incudine</text>
</g>
<!-- cm&#45;&gt;cm&#45;incudine -->
<g id="edge6" class="edge">
<title>cm&#45;&gt;cm&#45;incudine</title>
<path fill="none" stroke="black" d="M452.6,-369.9C489.45,-359.11 560.6,-338.27 610.89,-323.54"/>
<polygon fill="black" stroke="black" points="611.85,-326.91 620.47,-320.74 609.89,-320.19 611.85,-326.91"/>
</g>
<!-- cm&#45;sfz -->
<g id="node22" class="node">
<title>cm&#45;sfz</title>
<ellipse fill="none" stroke="black" cx="438.37" cy="-90" rx="43.32" ry="18"/>
<text text-anchor="middle" x="438.37" y="-85.33" font-family="Times,serif" font-size="14.00">cm&#45;sfz</text>
</g>
<!-- cm&#45;&gt;cm&#45;sfz -->
<g id="edge27" class="edge">
<title>cm&#45;&gt;cm&#45;sfz</title>
<path fill="none" stroke="black" d="M428.98,-359.54C430.65,-311.76 435.31,-178.51 437.37,-119.61"/>
<polygon fill="black" stroke="black" points="440.86,-119.86 437.72,-109.74 433.87,-119.62 440.86,-119.86"/>
</g>
<!-- cm&#45;fomus -->
<g id="node23" class="node">
<title>cm&#45;fomus</title>
<ellipse fill="none" stroke="black" cx="327.37" cy="-306" rx="59.63" ry="18"/>
<text text-anchor="middle" x="327.37" y="-301.32" font-family="Times,serif" font-size="14.00">cm&#45;fomus</text>
</g>
<!-- cm&#45;&gt;cm&#45;fomus -->
<g id="edge40" class="edge">
<title>cm&#45;&gt;cm&#45;fomus</title>
<path fill="none" stroke="black" d="M410.31,-364.49C396.28,-354.75 376.43,-341 359.68,-329.39"/>
<polygon fill="black" stroke="black" points="361.69,-326.53 351.48,-323.71 357.7,-332.28 361.69,-326.53"/>
</g>
<!-- cm&#45;poolevt -->
<g id="node24" class="node">
<title>cm&#45;poolevt</title>
<ellipse fill="none" stroke="black" cx="532.37" cy="-162" rx="65.94" ry="18"/>
<text text-anchor="middle" x="532.37" y="-157.32" font-family="Times,serif" font-size="14.00">cm&#45;poolevt</text>
</g>
<!-- cm&#45;&gt;cm&#45;poolevt -->
<g id="edge33" class="edge">
<title>cm&#45;&gt;cm&#45;poolevt</title>
<path fill="none" stroke="black" d="M441.08,-361.94C449.3,-351.69 459.83,-337.58 467.37,-324 492.44,-278.83 490.91,-263.86 510.37,-216 513.73,-207.75 517.42,-198.8 520.81,-190.65"/>
<polygon fill="black" stroke="black" points="523.98,-192.13 524.59,-181.56 517.52,-189.44 523.98,-192.13"/>
</g>
<!-- cm&#45;utils -->
<g id="node26" class="node">
<title>cm&#45;utils</title>
<ellipse fill="none" stroke="black" cx="290.37" cy="-234" rx="51.21" ry="18"/>
<text text-anchor="middle" x="290.37" y="-229.32" font-family="Times,serif" font-size="14.00">cm&#45;utils</text>
</g>
<!-- cm&#45;&gt;cm&#45;utils -->
<g id="edge45" class="edge">
<title>cm&#45;&gt;cm&#45;utils</title>
<path fill="none" stroke="black" d="M426.06,-359.64C422.65,-340.13 414.58,-308.5 396.37,-288 381.26,-270.98 359.42,-258.77 339.48,-250.4"/>
<polygon fill="black" stroke="black" points="340.96,-247.22 330.37,-246.8 338.39,-253.73 340.96,-247.22"/>
</g>
<!-- cm&#45;svg&#45;&gt;cm&#45;sfz -->
<g id="edge29" class="edge">
<title>cm&#45;svg&#45;&gt;cm&#45;sfz</title>
<path fill="none" stroke="black" d="M165.06,-219.51C219.64,-193.85 338.48,-137.97 399.9,-109.09"/>
<polygon fill="black" stroke="black" points="401.39,-112.26 408.95,-104.83 398.41,-105.92 401.39,-112.26"/>
</g>
<!-- cm&#45;svg&#45;&gt;cm&#45;poolevt -->
<g id="edge31" class="edge">
<title>cm&#45;svg&#45;&gt;cm&#45;poolevt</title>
<path fill="none" stroke="black" d="M177.54,-225.51C193.97,-222.53 213.07,-219.08 230.37,-216 311.78,-201.5 405.58,-185.08 466.76,-174.41"/>
<polygon fill="black" stroke="black" points="467.06,-177.91 476.31,-172.75 465.86,-171.02 467.06,-177.91"/>
</g>
<!-- cm&#45;poolplayer -->
<g id="node25" class="node">
<title>cm&#45;poolplayer</title>
<ellipse fill="none" stroke="black" cx="249.37" cy="-18" rx="81.72" ry="18"/>
<text text-anchor="middle" x="249.37" y="-13.32" font-family="Times,serif" font-size="14.00">cm&#45;poolplayer</text>
</g>
<!-- cm&#45;svg&#45;&gt;cm&#45;poolplayer -->
<g id="edge38" class="edge">
<title>cm&#45;svg&#45;&gt;cm&#45;poolplayer</title>
<path fill="none" stroke="black" d="M142.86,-215.98C154.58,-185.97 180.85,-122.09 210.37,-72 215.77,-62.85 222.39,-53.35 228.63,-44.97"/>
<polygon fill="black" stroke="black" points="231.24,-47.33 234.52,-37.25 225.67,-43.08 231.24,-47.33"/>
</g>
<!-- incudine -->
<g id="node5" class="node">
<title>incudine</title>
<ellipse fill="none" stroke="black" cx="857.37" cy="-450" rx="53.84" ry="18"/>
<text text-anchor="middle" x="857.37" y="-445.32" font-family="Times,serif" font-size="14.00">incudine</text>
</g>
<!-- incudine&#45;&gt;cm&#45;incudine -->
<g id="edge5" class="edge">
<title>incudine&#45;&gt;cm&#45;incudine</title>
<path fill="none" stroke="black" d="M804.18,-446.37C733.24,-441.62 613.42,-428.85 586.37,-396 576.2,-383.65 578.76,-374.07 586.37,-360 593.9,-346.08 606.84,-335.23 620.2,-327.08"/>
<polygon fill="black" stroke="black" points="621.61,-330.3 628.62,-322.35 618.18,-324.2 621.61,-330.3"/>
</g>
<!-- cl&#45;midictl -->
<g id="node7" class="node">
<title>cl&#45;midictl</title>
<ellipse fill="none" stroke="black" cx="942.37" cy="-378" rx="57.52" ry="18"/>
<text text-anchor="middle" x="942.37" y="-373.32" font-family="Times,serif" font-size="14.00">cl&#45;midictl</text>
</g>
<!-- incudine&#45;&gt;cl&#45;midictl -->
<g id="edge42" class="edge">
<title>incudine&#45;&gt;cl&#45;midictl</title>
<path fill="none" stroke="black" d="M877.09,-432.76C888.03,-423.75 901.83,-412.39 913.93,-402.43"/>
<polygon fill="black" stroke="black" points="916.1,-405.17 921.6,-396.11 911.65,-399.76 916.1,-405.17"/>
</g>
<!-- fudi -->
<g id="node8" class="node">
<title>fudi</title>
<ellipse fill="none" stroke="black" cx="626.37" cy="-378" rx="30.69" ry="18"/>
<text text-anchor="middle" x="626.37" y="-373.32" font-family="Times,serif" font-size="14.00">fudi</text>
</g>
<!-- incudine&#45;&gt;fudi -->
<g id="edge13" class="edge">
<title>incudine&#45;&gt;fudi</title>
<path fill="none" stroke="black" d="M814.4,-438.79C775.36,-429.11 716.4,-413.49 666.37,-396 664.56,-395.37 662.71,-394.69 660.86,-393.99"/>
<polygon fill="black" stroke="black" points="662.28,-390.79 651.69,-390.33 659.68,-397.29 662.28,-390.79"/>
</g>
<!-- cuda&#45;usocket&#45;osc -->
<g id="node9" class="node">
<title>cuda&#45;usocket&#45;osc</title>
<ellipse fill="none" stroke="black" cx="771.37" cy="-378" rx="95.93" ry="18"/>
<text text-anchor="middle" x="771.37" y="-373.32" font-family="Times,serif" font-size="14.00">cuda&#45;usocket&#45;osc</text>
</g>
<!-- incudine&#45;&gt;cuda&#45;usocket&#45;osc -->
<g id="edge9" class="edge">
<title>incudine&#45;&gt;cuda&#45;usocket&#45;osc</title>
<path fill="none" stroke="black" d="M837.86,-433.12C827.04,-424.31 813.35,-413.17 801.22,-403.29"/>
<polygon fill="black" stroke="black" points="803.45,-400.6 793.49,-397 799.03,-406.03 803.45,-400.6"/>
</g>
<!-- ats&#45;cuda -->
<g id="node10" class="node">
<title>ats&#45;cuda</title>
<ellipse fill="none" stroke="black" cx="1071.37" cy="-378" rx="53.31" ry="18"/>
<text text-anchor="middle" x="1071.37" y="-373.32" font-family="Times,serif" font-size="14.00">ats&#45;cuda</text>
</g>
<!-- incudine&#45;&gt;ats&#45;cuda -->
<g id="edge10" class="edge">
<title>incudine&#45;&gt;ats&#45;cuda</title>
<path fill="none" stroke="black" d="M894.65,-436.81C930.36,-425.12 984.44,-407.44 1023.36,-394.7"/>
<polygon fill="black" stroke="black" points="1024.31,-398.08 1032.73,-391.64 1022.13,-391.42 1024.31,-398.08"/>
</g>
<!-- clog&#45;dsp&#45;widgets -->
<g id="node12" class="node">
<title>clog&#45;dsp&#45;widgets</title>
<ellipse fill="none" stroke="black" cx="1409.37" cy="-378" rx="95.4" ry="18"/>
<text text-anchor="middle" x="1409.37" y="-373.32" font-family="Times,serif" font-size="14.00">clog&#45;dsp&#45;widgets</text>
</g>
<!-- incudine&#45;&gt;clog&#45;dsp&#45;widgets -->
<g id="edge48" class="edge">
<title>incudine&#45;&gt;clog&#45;dsp&#45;widgets</title>
<path fill="none" stroke="black" d="M908.41,-443.66C991.52,-434.81 1161.2,-416.07 1304.37,-396 1312.23,-394.9 1320.41,-393.69 1328.58,-392.44"/>
<polygon fill="black" stroke="black" points="1328.84,-395.94 1338.19,-390.94 1327.77,-389.02 1328.84,-395.94"/>
</g>
<!-- incudine&#45;bufs -->
<g id="node15" class="node">
<title>incudine&#45;bufs</title>
<ellipse fill="none" stroke="black" cx="598.37" cy="-234" rx="78.57" ry="18"/>
<text text-anchor="middle" x="598.37" y="-229.32" font-family="Times,serif" font-size="14.00">incudine&#45;bufs</text>
</g>
<!-- incudine&#45;&gt;incudine&#45;bufs -->
<g id="edge16" class="edge">
<title>incudine&#45;&gt;incudine&#45;bufs</title>
<path fill="none" stroke="black" d="M803.91,-446.81C730.37,-442.55 603.84,-430.31 575.37,-396 544,-358.19 565.9,-297.4 583.15,-262.34"/>
<polygon fill="black" stroke="black" points="586.14,-264.17 587.6,-253.68 579.91,-260.97 586.14,-264.17"/>
</g>
<!-- incudine&#45;plot -->
<g id="node17" class="node">
<title>incudine&#45;plot</title>
<ellipse fill="none" stroke="black" cx="1219.37" cy="-378" rx="76.46" ry="18"/>
<text text-anchor="middle" x="1219.37" y="-373.32" font-family="Times,serif" font-size="14.00">incudine&#45;plot</text>
</g>
<!-- incudine&#45;&gt;incudine&#45;plot -->
<g id="edge18" class="edge">
<title>incudine&#45;&gt;incudine&#45;plot</title>
<path fill="none" stroke="black" d="M903.29,-440.26C958.08,-429.82 1052.44,-411.77 1133.37,-396 1139.25,-394.85 1145.36,-393.66 1151.48,-392.46"/>
<polygon fill="black" stroke="black" points="1151.86,-395.95 1161,-390.58 1150.51,-389.08 1151.86,-395.95"/>
</g>
<!-- of&#45;incudine&#45;dsps -->
<g id="node14" class="node">
<title>of&#45;incudine&#45;dsps</title>
<ellipse fill="none" stroke="black" cx="787.37" cy="-234" rx="92.24" ry="18"/>
<text text-anchor="middle" x="787.37" y="-229.32" font-family="Times,serif" font-size="14.00">of&#45;incudine&#45;dsps</text>
</g>
<!-- cm&#45;incudine&#45;&gt;of&#45;incudine&#45;dsps -->
<g id="edge15" class="edge">
<title>cm&#45;incudine&#45;&gt;of&#45;incudine&#45;dsps</title>
<path fill="none" stroke="black" d="M694.9,-288.94C711.13,-279.47 731.9,-267.36 749.64,-257.01"/>
<polygon fill="black" stroke="black" points="750.95,-260.3 757.83,-252.23 747.43,-254.25 750.95,-260.3"/>
</g>
<!-- cl&#45;midictl&#45;&gt;cm&#45;incudine -->
<g id="edge7" class="edge">
<title>cl&#45;midictl&#45;&gt;cm&#45;incudine</title>
<path fill="none" stroke="black" d="M899.07,-365.82C891.5,-363.88 883.71,-361.88 876.37,-360 826.37,-347.22 769.61,-332.84 727.88,-322.28"/>
<polygon fill="black" stroke="black" points="728.81,-318.91 718.26,-319.85 727.1,-325.69 728.81,-318.91"/>
</g>
<!-- clog&#45;midi&#45;controller -->
<g id="node30" class="node">
<title>clog&#45;midi&#45;controller</title>
<ellipse fill="none" stroke="black" cx="1016.37" cy="-306" rx="109.08" ry="18"/>
<text text-anchor="middle" x="1016.37" y="-301.32" font-family="Times,serif" font-size="14.00">clog&#45;midi&#45;controller</text>
</g>
<!-- cl&#45;midictl&#45;&gt;clog&#45;midi&#45;controller -->
<g id="edge55" class="edge">
<title>cl&#45;midictl&#45;&gt;clog&#45;midi&#45;controller</title>
<path fill="none" stroke="black" d="M959.91,-360.41C968.92,-351.88 980.09,-341.32 990.11,-331.84"/>
<polygon fill="black" stroke="black" points="992.23,-334.66 997.09,-325.24 987.42,-329.57 992.23,-334.66"/>
</g>
<!-- fudi&#45;&gt;cm&#45;incudine -->
<g id="edge8" class="edge">
<title>fudi&#45;&gt;cm&#45;incudine</title>
<path fill="none" stroke="black" d="M635.88,-360.76C640.56,-352.78 646.31,-342.95 651.62,-333.89"/>
<polygon fill="black" stroke="black" points="654.54,-335.83 656.58,-325.43 648.5,-332.29 654.54,-335.83"/>
</g>
<!-- ats&#45;cuda&#45;display -->
<g id="node11" class="node">
<title>ats&#45;cuda&#45;display</title>
<ellipse fill="none" stroke="black" cx="1299.37" cy="-306" rx="92.24" ry="18"/>
<text text-anchor="middle" x="1299.37" y="-301.32" font-family="Times,serif" font-size="14.00">ats&#45;cuda&#45;display</text>
</g>
<!-- ats&#45;cuda&#45;&gt;ats&#45;cuda&#45;display -->
<g id="edge11" class="edge">
<title>ats&#45;cuda&#45;&gt;ats&#45;cuda&#45;display</title>
<path fill="none" stroke="black" d="M1109.79,-365.2C1145.48,-354.25 1199.16,-337.77 1240.3,-325.14"/>
<polygon fill="black" stroke="black" points="1241.29,-328.49 1249.82,-322.21 1239.24,-321.8 1241.29,-328.49"/>
</g>
<!-- clog&#45;dsp&#45;widgets&#45;&gt;ats&#45;cuda&#45;display -->
<g id="edge12" class="edge">
<title>clog&#45;dsp&#45;widgets&#45;&gt;ats&#45;cuda&#45;display</title>
<path fill="none" stroke="black" d="M1383.02,-360.23C1368.6,-351.06 1350.53,-339.56 1334.88,-329.6"/>
<polygon fill="black" stroke="black" points="1337.1,-326.86 1326.78,-324.44 1333.34,-332.76 1337.1,-326.86"/>
</g>
<!-- clog&#45;cuda -->
<g id="node29" class="node">
<title>clog&#45;cuda</title>
<ellipse fill="none" stroke="black" cx="1510.37" cy="-162" rx="58.57" ry="18"/>
<text text-anchor="middle" x="1510.37" y="-157.32" font-family="Times,serif" font-size="14.00">clog&#45;cuda</text>
</g>
<!-- clog&#45;dsp&#45;widgets&#45;&gt;clog&#45;cuda -->
<g id="edge52" class="edge">
<title>clog&#45;dsp&#45;widgets&#45;&gt;clog&#45;cuda</title>
<path fill="none" stroke="black" d="M1417.47,-359.85C1434.94,-322.83 1476.31,-235.18 1497.45,-190.39"/>
<polygon fill="black" stroke="black" points="1500.49,-192.14 1501.59,-181.6 1494.16,-189.15 1500.49,-192.14"/>
</g>
<!-- clog&#45;dsp&#45;widgets&#45;&gt;clog&#45;midi&#45;controller -->
<g id="edge54" class="edge">
<title>clog&#45;dsp&#45;widgets&#45;&gt;clog&#45;midi&#45;controller</title>
<path fill="none" stroke="black" d="M1341.81,-364.97C1274.84,-353.04 1172.09,-334.74 1100,-321.9"/>
<polygon fill="black" stroke="black" points="1100.65,-318.46 1090.19,-320.15 1099.42,-325.35 1100.65,-318.46"/>
</g>
<!-- orm&#45;utils -->
<g id="node13" class="node">
<title>orm&#45;utils</title>
<ellipse fill="none" stroke="black" cx="260.37" cy="-450" rx="56.47" ry="18"/>
<text text-anchor="middle" x="260.37" y="-445.32" font-family="Times,serif" font-size="14.00">orm&#45;utils</text>
</g>
<!-- orm&#45;utils&#45;&gt;svg&#45;import&#45;export -->
<g id="edge26" class="edge">
<title>orm&#45;utils&#45;&gt;svg&#45;import&#45;export</title>
<path fill="none" stroke="black" d="M232.7,-433.98C214.92,-424.34 191.53,-411.64 171.7,-400.88"/>
<polygon fill="black" stroke="black" points="173.49,-397.87 163.03,-396.18 170.15,-404.03 173.49,-397.87"/>
</g>
<!-- orm&#45;utils&#45;&gt;cl&#45;midictl -->
<g id="edge41" class="edge">
<title>orm&#45;utils&#45;&gt;cl&#45;midictl</title>
<path fill="none" stroke="black" d="M316.4,-447.3C425.1,-443.3 671.89,-430.88 876.37,-396 880.71,-395.26 885.18,-394.38 889.65,-393.41"/>
<polygon fill="black" stroke="black" points="890.27,-396.86 899.23,-391.19 888.69,-390.04 890.27,-396.86"/>
</g>
<!-- orm&#45;utils&#45;&gt;of&#45;incudine&#45;dsps -->
<g id="edge14" class="edge">
<title>orm&#45;utils&#45;&gt;of&#45;incudine&#45;dsps</title>
<path fill="none" stroke="black" d="M312.27,-442.4C355.04,-435.38 416.25,-421.63 464.37,-396 528.29,-361.96 522.52,-322.16 586.37,-288 608.73,-276.04 667.13,-261.23 715.25,-250.32"/>
<polygon fill="black" stroke="black" points="715.82,-253.78 724.81,-248.17 714.29,-246.95 715.82,-253.78"/>
</g>
<!-- cl&#45;poolplayer -->
<g id="node21" class="node">
<title>cl&#45;poolplayer</title>
<ellipse fill="none" stroke="black" cx="301.37" cy="-90" rx="75.41" ry="18"/>
<text text-anchor="middle" x="301.37" y="-85.33" font-family="Times,serif" font-size="14.00">cl&#45;poolplayer</text>
</g>
<!-- orm&#45;utils&#45;&gt;cl&#45;poolplayer -->
<g id="edge25" class="edge">
<title>orm&#45;utils&#45;&gt;cl&#45;poolplayer</title>
<path fill="none" stroke="black" d="M206.74,-443.82C144.43,-436.69 46.89,-421.72 21.37,-396 -7.12,-367.29 2.37,-347.45 2.37,-307 2.37,-307 2.37,-307 2.37,-233 2.37,-137.48 128.42,-106.14 216.83,-95.9"/>
<polygon fill="black" stroke="black" points="217.16,-99.39 226.72,-94.83 216.41,-92.43 217.16,-99.39"/>
</g>
<!-- orm&#45;utils&#45;&gt;cm&#45;utils -->
<g id="edge44" class="edge">
<title>orm&#45;utils&#45;&gt;cm&#45;utils</title>
<path fill="none" stroke="black" d="M257.04,-431.67C251.96,-401.72 244.27,-338.63 258.37,-288 261,-278.58 265.8,-269.16 270.9,-260.93"/>
<polygon fill="black" stroke="black" points="273.67,-263.08 276.3,-252.82 267.84,-259.2 273.67,-263.08"/>
</g>
<!-- cl&#45;sfz -->
<g id="node19" class="node">
<title>cl&#45;sfz</title>
<ellipse fill="none" stroke="black" cx="815.37" cy="-162" rx="37" ry="18"/>
<text text-anchor="middle" x="815.37" y="-157.32" font-family="Times,serif" font-size="14.00">cl&#45;sfz</text>
</g>
<!-- of&#45;incudine&#45;dsps&#45;&gt;cl&#45;sfz -->
<g id="edge21" class="edge">
<title>of&#45;incudine&#45;dsps&#45;&gt;cl&#45;sfz</title>
<path fill="none" stroke="black" d="M794.29,-215.7C797.31,-208.15 800.92,-199.12 804.3,-190.68"/>
<polygon fill="black" stroke="black" points="807.5,-192.09 807.97,-181.51 801,-189.49 807.5,-192.09"/>
</g>
<!-- cl&#45;pooplayer -->
<g id="node20" class="node">
<title>cl&#45;pooplayer</title>
<ellipse fill="none" stroke="black" cx="688.37" cy="-162" rx="72.25" ry="18"/>
<text text-anchor="middle" x="688.37" y="-157.32" font-family="Times,serif" font-size="14.00">cl&#45;pooplayer</text>
</g>
<!-- of&#45;incudine&#45;dsps&#45;&gt;cl&#45;pooplayer -->
<g id="edge23" class="edge">
<title>of&#45;incudine&#45;dsps&#45;&gt;cl&#45;pooplayer</title>
<path fill="none" stroke="black" d="M763.66,-216.23C750.83,-207.16 734.8,-195.83 720.83,-185.95"/>
<polygon fill="black" stroke="black" points="722.97,-183.18 712.79,-180.26 718.93,-188.89 722.97,-183.18"/>
</g>
<!-- of&#45;incudine&#45;dsps&#45;&gt;cm&#45;poolevt -->
<g id="edge34" class="edge">
<title>of&#45;incudine&#45;dsps&#45;&gt;cm&#45;poolevt</title>
<path fill="none" stroke="black" d="M735.46,-218.75C692.86,-207.06 632.64,-190.53 588.85,-178.5"/>
<polygon fill="black" stroke="black" points="589.83,-175.14 579.26,-175.87 587.98,-181.89 589.83,-175.14"/>
</g>
<!-- of&#45;incudine&#45;dsps&#45;&gt;clog&#45;cuda -->
<g id="edge51" class="edge">
<title>of&#45;incudine&#45;dsps&#45;&gt;clog&#45;cuda</title>
<path fill="none" stroke="black" d="M868.55,-225.14C1012.83,-211.17 1311.19,-182.28 1444.05,-169.42"/>
<polygon fill="black" stroke="black" points="1444.11,-172.93 1453.73,-168.48 1443.44,-165.96 1444.11,-172.93"/>
</g>
<!-- incudine&#45;bufs&#45;&gt;cl&#45;sfz -->
<g id="edge20" class="edge">
<title>incudine&#45;bufs&#45;&gt;cl&#45;sfz</title>
<path fill="none" stroke="black" d="M645.4,-219.16C679.88,-208.84 727.73,-194.14 769.37,-180 771.58,-179.25 773.83,-178.47 776.11,-177.67"/>
<polygon fill="black" stroke="black" points="777.09,-181.03 785.32,-174.36 774.73,-174.45 777.09,-181.03"/>
</g>
<!-- incudine&#45;bufs&#45;&gt;cl&#45;pooplayer -->
<g id="edge22" class="edge">
<title>incudine&#45;bufs&#45;&gt;cl&#45;pooplayer</title>
<path fill="none" stroke="black" d="M619.7,-216.41C631.25,-207.43 645.7,-196.19 658.36,-186.34"/>
<polygon fill="black" stroke="black" points="660.26,-189.3 666,-180.4 655.96,-183.78 660.26,-189.3"/>
</g>
<!-- incudine&#45;bufs&#45;&gt;cm&#45;poolevt -->
<g id="edge32" class="edge">
<title>incudine&#45;bufs&#45;&gt;cm&#45;poolevt</title>
<path fill="none" stroke="black" d="M582.4,-216.05C574.45,-207.63 564.69,-197.28 555.91,-187.97"/>
<polygon fill="black" stroke="black" points="558.65,-185.77 549.24,-180.89 553.55,-190.57 558.65,-185.77"/>
</g>
<!-- cl&#45;plot -->
<g id="node16" class="node">
<title>cl&#45;plot</title>
<ellipse fill="none" stroke="black" cx="1219.37" cy="-450" rx="42.26" ry="18"/>
<text text-anchor="middle" x="1219.37" y="-445.32" font-family="Times,serif" font-size="14.00">cl&#45;plot</text>
</g>
<!-- cl&#45;plot&#45;&gt;incudine&#45;plot -->
<g id="edge17" class="edge">
<title>cl&#45;plot&#45;&gt;incudine&#45;plot</title>
<path fill="none" stroke="black" d="M1219.37,-431.7C1219.37,-424.41 1219.37,-415.73 1219.37,-407.54"/>
<polygon fill="black" stroke="black" points="1222.87,-407.62 1219.37,-397.62 1215.87,-407.62 1222.87,-407.62"/>
</g>
<!-- cl&#45;refs -->
<g id="node18" class="node">
<title>cl&#45;refs</title>
<ellipse fill="none" stroke="black" cx="1436.37" cy="-450" rx="42.26" ry="18"/>
<text text-anchor="middle" x="1436.37" y="-445.32" font-family="Times,serif" font-size="14.00">cl&#45;refs</text>
</g>
<!-- cl&#45;refs&#45;&gt;cl&#45;midictl -->
<g id="edge43" class="edge">
<title>cl&#45;refs&#45;&gt;cl&#45;midictl</title>
<path fill="none" stroke="black" d="M1395.59,-444.6C1303.76,-434.58 1083.06,-409.87 1009.37,-396 1004.99,-395.17 1000.46,-394.23 995.93,-393.22"/>
<polygon fill="black" stroke="black" points="996.73,-389.81 986.2,-390.94 995.14,-396.63 996.73,-389.81"/>
</g>
<!-- cl&#45;refs&#45;&gt;clog&#45;dsp&#45;widgets -->
<g id="edge47" class="edge">
<title>cl&#45;refs&#45;&gt;clog&#45;dsp&#45;widgets</title>
<path fill="none" stroke="black" d="M1429.84,-432.05C1426.93,-424.52 1423.43,-415.44 1420.15,-406.94"/>
<polygon fill="black" stroke="black" points="1423.44,-405.76 1416.58,-397.69 1416.91,-408.28 1423.44,-405.76"/>
</g>
<!-- cl&#45;refs&#45;&gt;cl&#45;sfz -->
<g id="edge19" class="edge">
<title>cl&#45;refs&#45;&gt;cl&#45;sfz</title>
<path fill="none" stroke="black" d="M1466.44,-436.89C1483.55,-428.26 1503.48,-414.82 1513.37,-396 1520.82,-381.84 1521.07,-374.03 1513.37,-360 1484.73,-307.79 1455.48,-310.58 1400.37,-288 1210.41,-210.16 965.01,-178 863.05,-167.39"/>
<polygon fill="black" stroke="black" points="863.44,-163.91 853.14,-166.38 862.73,-170.87 863.44,-163.91"/>
</g>
<!-- cl&#45;refs&#45;&gt;clog&#45;cuda -->
<g id="edge53" class="edge">
<title>cl&#45;refs&#45;&gt;clog&#45;cuda</title>
<path fill="none" stroke="black" d="M1474.21,-441.62C1499.39,-434.53 1530.64,-421.04 1546.37,-396 1588.93,-328.26 1569.89,-292.47 1546.37,-216 1543.41,-206.37 1538.04,-196.92 1532.33,-188.73"/>
<polygon fill="black" stroke="black" points="1535.31,-186.87 1526.51,-180.97 1529.71,-191.07 1535.31,-186.87"/>
</g>
<!-- cl&#45;sfz&#45;&gt;cl&#45;poolplayer -->
<g id="edge24" class="edge">
<title>cl&#45;sfz&#45;&gt;cl&#45;poolplayer</title>
<path fill="none" stroke="black" d="M788,-149.56C781.95,-147.41 775.51,-145.4 769.37,-144 602.67,-106.05 555.54,-132.8 386.37,-108 380.08,-107.08 373.54,-106 367.02,-104.83"/>
<polygon fill="black" stroke="black" points="368.05,-101.46 357.58,-103.09 366.78,-108.35 368.05,-101.46"/>
</g>
<!-- cl&#45;sfz&#45;&gt;cm&#45;sfz -->
<g id="edge28" class="edge">
<title>cl&#45;sfz&#45;&gt;cm&#45;sfz</title>
<path fill="none" stroke="black" d="M787.43,-149.69C781.53,-147.58 775.3,-145.55 769.37,-144 673.12,-118.77 557.78,-103.6 491.79,-96.3"/>
<polygon fill="black" stroke="black" points="492.28,-92.84 481.96,-95.24 491.52,-99.8 492.28,-92.84"/>
</g>
<!-- cl&#45;poolplayer&#45;&gt;cm&#45;poolplayer -->
<g id="edge35" class="edge">
<title>cl&#45;poolplayer&#45;&gt;cm&#45;poolplayer</title>
<path fill="none" stroke="black" d="M288.78,-72.05C282.72,-63.89 275.31,-53.91 268.56,-44.82"/>
<polygon fill="black" stroke="black" points="271.52,-42.94 262.75,-37 265.9,-47.12 271.52,-42.94"/>
</g>
<!-- cm&#45;fomus&#45;&gt;cm&#45;sfz -->
<g id="edge30" class="edge">
<title>cm&#45;fomus&#45;&gt;cm&#45;sfz</title>
<path fill="none" stroke="black" d="M336.27,-287.85C355.52,-250.74 401.16,-162.75 424.34,-118.05"/>
<polygon fill="black" stroke="black" points="427.39,-119.77 428.89,-109.28 421.18,-116.54 427.39,-119.77"/>
</g>
<!-- cm&#45;fomus&#45;&gt;cm&#45;utils -->
<g id="edge46" class="edge">
<title>cm&#45;fomus&#45;&gt;cm&#45;utils</title>
<path fill="none" stroke="black" d="M318.42,-288.05C314.23,-280.14 309.16,-270.54 304.48,-261.69"/>
<polygon fill="black" stroke="black" points="307.72,-260.33 299.95,-253.13 301.53,-263.6 307.72,-260.33"/>
</g>
<!-- cm&#45;poolevt&#45;&gt;cm&#45;poolplayer -->
<g id="edge37" class="edge">
<title>cm&#45;poolevt&#45;&gt;cm&#45;poolplayer</title>
<path fill="none" stroke="black" d="M529.03,-143.75C524.15,-123.41 513.08,-90.11 490.37,-72 465.91,-52.49 390.89,-37.99 330.97,-29.13"/>
<polygon fill="black" stroke="black" points="331.49,-25.67 321.09,-27.71 330.49,-32.6 331.49,-25.67"/>
</g>
<!-- cm&#45;utils&#45;&gt;cm&#45;poolplayer -->
<g id="edge36" class="edge">
<title>cm&#45;utils&#45;&gt;cm&#45;poolplayer</title>
<path fill="none" stroke="black" d="M276.83,-216.52C259.1,-193.77 228.93,-150.69 217.37,-108 213.19,-92.56 213.08,-87.41 217.37,-72 219.93,-62.83 224.55,-53.65 229.49,-45.58"/>
<polygon fill="black" stroke="black" points="232.38,-47.56 234.97,-37.29 226.54,-43.7 232.38,-47.56"/>
</g>
<!-- fomus -->
<g id="node27" class="node">
<title>fomus</title>
<ellipse fill="none" stroke="black" cx="330.37" cy="-378" rx="41.74" ry="18"/>
<text text-anchor="middle" x="330.37" y="-373.32" font-family="Times,serif" font-size="14.00">fomus</text>
</g>
<!-- fomus&#45;&gt;cm&#45;fomus -->
<g id="edge39" class="edge">
<title>fomus&#45;&gt;cm&#45;fomus</title>
<path fill="none" stroke="black" d="M329.63,-359.7C329.32,-352.41 328.95,-343.73 328.59,-335.54"/>
<polygon fill="black" stroke="black" points="332.09,-335.46 328.17,-325.62 325.1,-335.76 332.09,-335.46"/>
</g>
<!-- clog -->
<g id="node28" class="node">
<title>clog</title>
<ellipse fill="none" stroke="black" cx="1581.37" cy="-450" rx="31.74" ry="18"/>
<text text-anchor="middle" x="1581.37" y="-445.32" font-family="Times,serif" font-size="14.00">clog</text>
</g>
<!-- clog&#45;&gt;clog&#45;dsp&#45;widgets -->
<g id="edge49" class="edge">
<title>clog&#45;&gt;clog&#45;dsp&#45;widgets</title>
<path fill="none" stroke="black" d="M1555.99,-438.67C1530.47,-428.28 1490.45,-412 1458.67,-399.06"/>
<polygon fill="black" stroke="black" points="1460.22,-395.92 1449.64,-395.39 1457.58,-402.4 1460.22,-395.92"/>
</g>
<!-- clog&#45;&gt;clog&#45;cuda -->
<g id="edge50" class="edge">
<title>clog&#45;&gt;clog&#45;cuda</title>
<path fill="none" stroke="black" d="M1586.7,-431.97C1598.26,-391.73 1621.72,-288.69 1584.37,-216 1577.35,-202.34 1564.99,-191.41 1552.36,-183.1"/>
<polygon fill="black" stroke="black" points="1554.39,-180.24 1544.02,-178.05 1550.76,-186.23 1554.39,-180.24"/>
</g>
</g>
</svg>
